<svg viewBox="0 0 400 225" xmlns="http://www.w3.org/2000/svg" preserveAspectRatio="xMidYMid slice">
  <defs>
    <linearGradient id="sky" x1="0" y1="0" x2="0" y2="1"><stop offset="0" stop-color="#241046"/><stop offset="1" stop-color="#070610"/></linearGradient>
    <radialGradient id="glow" cx="50%" cy="30%" r="70%"><stop offset="0" stop-color="#e879f9" stop-opacity="0.4"/><stop offset="1" stop-color="#e879f9" stop-opacity="0"/></radialGradient>
  </defs>
  <rect width="400" height="225" fill="url(#sky)"/>
  <rect width="400" height="225" fill="url(#glow)"/>
  <g fill="#ffffff"><circle cx="40" cy="40" r="1.3" opacity=".7"/><circle cx="370" cy="34" r="1.2" opacity=".6"/><circle cx="200" cy="20" r="1" opacity=".5"/></g>
  <!-- firework burst 1 (magenta) -->
  <g transform="translate(130,86)" stroke="#f5abf0" stroke-width="2.4" stroke-linecap="round" opacity=".95">
    <g fill="none"><line x1="0" y1="0" x2="0" y2="-30"/><line x1="0" y1="0" x2="21" y2="-21"/><line x1="0" y1="0" x2="30" y2="0"/><line x1="0" y1="0" x2="21" y2="21"/><line x1="0" y1="0" x2="0" y2="30"/><line x1="0" y1="0" x2="-21" y2="21"/><line x1="0" y1="0" x2="-30" y2="0"/><line x1="0" y1="0" x2="-21" y2="-21"/></g>
  </g>
  <g fill="#ffffff"><circle cx="130" cy="56" r="2"/><circle cx="151" cy="65" r="2"/><circle cx="160" cy="86" r="2"/><circle cx="151" cy="107" r="2"/><circle cx="130" cy="116" r="2"/><circle cx="109" cy="107" r="2"/><circle cx="100" cy="86" r="2"/><circle cx="109" cy="65" r="2"/></g>
  <!-- firework burst 2 (cyan) -->
  <g transform="translate(270,72)" stroke="#7ee7fb" stroke-width="2.2" stroke-linecap="round" opacity=".9">
    <g fill="none"><line x1="0" y1="0" x2="0" y2="-24"/><line x1="0" y1="0" x2="17" y2="-17"/><line x1="0" y1="0" x2="24" y2="0"/><line x1="0" y1="0" x2="17" y2="17"/><line x1="0" y1="0" x2="0" y2="24"/><line x1="0" y1="0" x2="-17" y2="17"/><line x1="0" y1="0" x2="-24" y2="0"/><line x1="0" y1="0" x2="-17" y2="-17"/></g>
  </g>
  <!-- firework burst 3 (amber, small) -->
  <g transform="translate(210,130)" stroke="#fcd34d" stroke-width="2" stroke-linecap="round" opacity=".85">
    <g fill="none"><line x1="0" y1="0" x2="0" y2="-18"/><line x1="0" y1="0" x2="13" y2="-13"/><line x1="0" y1="0" x2="18" y2="0"/><line x1="0" y1="0" x2="13" y2="13"/><line x1="0" y1="0" x2="-13" y2="13"/><line x1="0" y1="0" x2="-18" y2="0"/><line x1="0" y1="0" x2="-13" y2="-13"/></g>
  </g>
  <!-- skyline -->
  <g fill="#0a0618"><rect x="0" y="196" width="400" height="29"/>
    <rect x="40" y="176" width="24" height="20"/><rect x="120" y="184" width="20" height="12"/><rect x="210" y="172" width="26" height="24"/><rect x="300" y="182" width="22" height="14"/><rect x="344" y="176" width="18" height="20"/></g>
</svg>
