<svg viewBox="0 0 400 225" xmlns="http://www.w3.org/2000/svg" preserveAspectRatio="xMidYMid slice">
  <defs>
    <linearGradient id="sky" x1="0" y1="0" x2="0" y2="1"><stop offset="0" stop-color="#3a2a10"/><stop offset="1" stop-color="#0b0805"/></linearGradient>
    <radialGradient id="glow" cx="50%" cy="32%" r="66%"><stop offset="0" stop-color="#fbbf24" stop-opacity="0.45"/><stop offset="1" stop-color="#fbbf24" stop-opacity="0"/></radialGradient>
  </defs>
  <rect width="400" height="225" fill="url(#sky)"/>
  <rect width="400" height="225" fill="url(#glow)"/>
  <g fill="#ffffff"><circle cx="55" cy="42" r="1.4" opacity=".8"/><circle cx="352" cy="60" r="1.2" opacity=".6"/></g>
  <!-- string lights -->
  <path d="M20 40 q180 40 360 30" stroke="#fcd34d" stroke-width="1.2" fill="none" opacity=".5"/>
  <g fill="#fde68a"><circle cx="80" cy="47" r="2.4"/><circle cx="160" cy="55" r="2.4"/><circle cx="240" cy="57" r="2.4"/><circle cx="320" cy="52" r="2.4"/></g>
  <!-- burger (right) -->
  <g transform="translate(300,120)">
    <path d="M-22 0 q22 -20 44 0 z" fill="#f59e0b"/>
    <rect x="-22" y="0" width="44" height="6" fill="#84cc16"/>
    <rect x="-22" y="6" width="44" height="7" fill="#b45309"/>
    <rect x="-22" y="13" width="44" height="6" fill="#fbbf24"/>
    <path d="M-22 19 q22 14 44 0 z" fill="#f59e0b"/>
  </g>
  <!-- food truck -->
  <rect x="70" y="112" width="150" height="60" rx="8" fill="#fcd34d"/>
  <path d="M220 128 h44 l24 26 v18 h-68 z" fill="#f59e0b"/>
  <rect x="86" y="126" width="118" height="30" rx="4" fill="#1f1405" opacity=".55"/>
  <rect x="78" y="106" width="134" height="12" rx="4" fill="#f97316"/>
  <g fill="#fff7e0" opacity=".7"><rect x="86" y="106" width="14" height="12"/><rect x="120" y="106" width="14" height="12"/><rect x="154" y="106" width="14" height="12"/><rect x="188" y="106" width="14" height="12"/></g>
  <circle cx="106" cy="176" r="13" fill="#fef3c7"/><circle cx="106" cy="176" r="6" fill="#3a2a10"/>
  <circle cx="242" cy="176" r="13" fill="#fef3c7"/><circle cx="242" cy="176" r="6" fill="#3a2a10"/>
  <!-- OPEN sign -->
  <rect x="150" y="70" width="52" height="20" rx="10" fill="#fef3c7"/>
  <text x="176" y="84" font-family="system-ui, sans-serif" font-size="12" font-weight="700" fill="#b45309" text-anchor="middle">OPEN</text>
</svg>
