<svg viewBox="0 0 400 225" xmlns="http://www.w3.org/2000/svg" preserveAspectRatio="xMidYMid slice">
  <defs>
    <linearGradient id="sky" x1="0" y1="0" x2="0" y2="1"><stop offset="0" stop-color="#1a1636"/><stop offset="1" stop-color="#070610"/></linearGradient>
    <radialGradient id="glow" cx="70%" cy="26%" r="60%"><stop offset="0" stop-color="#a78bfa" stop-opacity="0.45"/><stop offset="1" stop-color="#a78bfa" stop-opacity="0"/></radialGradient>
  </defs>
  <rect width="400" height="225" fill="url(#sky)"/>
  <rect width="400" height="225" fill="url(#glow)"/>
  <!-- crescent moon -->
  <path d="M334 30 a24 24 0 1 0 6 47 a28 28 0 0 1 -6 -47 z" fill="#fcd34d" opacity=".92"/>
  <g fill="#ffffff"><circle cx="60" cy="50" r="1.5" opacity=".85"/><circle cx="120" cy="36" r="1.2" opacity=".7"/><circle cx="260" cy="44" r="1.1" opacity=".6"/><circle cx="80" cy="150" r="1.1" opacity=".5"/></g>
  <!-- saxophone -->
  <g stroke="#fcd34d" stroke-width="11" fill="none" stroke-linecap="round">
    <path d="M176 66 l6 60 q4 34 40 40"/>
  </g>
  <path d="M214 168 q22 4 30 22 q2 8 -8 10 q-24 4 -34 -16 z" fill="#fbbf24"/>
  <g fill="#3a2a10"><circle cx="182" cy="96" r="3"/><circle cx="184" cy="112" r="3"/><circle cx="190" cy="128" r="3"/><circle cx="200" cy="142" r="3"/></g>
  <rect x="170" y="58" width="14" height="12" rx="4" fill="#e2c9ff"/>
  <!-- notes -->
  <g fill="#c7b8ff">
    <g transform="translate(250,110)"><rect x="10" y="-30" width="3.5" height="34" rx="1.5"/><ellipse cx="7" cy="4" rx="8" ry="6"/><path d="M13.5 -30 q14 3 14 16 q-5 -9 -14 -8 z"/></g>
    <g transform="translate(292,140)"><rect x="7" y="-22" width="3" height="26" rx="1.5"/><ellipse cx="4" cy="4" rx="6.5" ry="5"/></g>
  </g>
</svg>
